<?xml version="1.0" standalone="no"?>
<!DOCTYPE svg PUBLIC "-//W3C//DTD SVG 20010904//EN"
 "http://www.w3.org/TR/2001/REC-SVG-20010904/DTD/svg10.dtd">
<svg version="1.0" xmlns="http://www.w3.org/2000/svg"
 width="860.000000pt" height="915.000000pt" viewBox="0 0 860.000000 915.000000"
 preserveAspectRatio="xMidYMid meet">

<g transform="translate(0.000000,915.000000) scale(0.100000,-0.100000)"
fill="#000000" stroke="none">
<path d="M6630 8735 c-417 -66 -793 -415 -938 -875 -50 -156 -64 -242 -69
-425 -4 -142 -2 -190 15 -291 35 -201 112 -416 195 -541 73 -109 246 -312 698
-818 231 -258 301 -328 322 -323 21 4 692 761 860 970 191 237 265 388 323
658 26 116 26 450 0 590 -88 491 -434 898 -868 1024 -149 43 -377 56 -538 31z
m429 -265 c154 -44 297 -136 428 -273 181 -191 287 -427 314 -699 16 -162 -2
-325 -56 -484 -71 -213 -109 -267 -543 -762 -239 -273 -355 -400 -363 -398 -5
1 -353 390 -592 664 -150 171 -192 230 -253 357 -207 428 -144 917 166 1290
128 155 323 277 512 320 91 21 291 13 387 -15z"/>
<path d="M6730 8204 c-36 -7 -105 -34 -155 -58 -166 -82 -299 -216 -383 -385
l-47 -94 0 -191 0 -191 36 -76 c53 -111 106 -184 196 -269 95 -90 164 -132
280 -172 170 -59 356 -47 518 33 83 41 209 142 274 221 60 73 124 197 146 283
20 79 20 259 -1 338 -99 383 -496 640 -864 561z m251 -268 c230 -49 359 -216
359 -467 0 -170 -62 -300 -182 -382 -91 -62 -126 -71 -283 -71 -122 0 -147 2
-197 22 -194 78 -295 273 -267 520 30 268 286 438 570 378z"/>
<path d="M4345 5739 c-145 -49 -293 -147 -331 -220 -30 -59 -5 -130 58 -169
54 -33 83 -26 195 44 66 41 134 74 190 92 152 48 208 129 150 215 -28 42 -80
69 -132 69 -22 0 -80 -14 -130 -31z"/>
<path d="M4843 5755 c-35 -15 -73 -77 -73 -120 0 -32 21 -73 49 -99 24 -22
162 -34 398 -35 l141 -1 41 47 c23 25 44 57 47 70 9 35 -44 136 -76 144 -14 4
-131 7 -260 8 -180 0 -243 -3 -267 -14z"/>
<path d="M5660 5757 c-35 -18 -70 -74 -70 -114 0 -19 7 -50 16 -69 30 -62 51
-67 317 -72 l238 -5 36 34 c66 64 79 118 43 177 -35 57 -62 62 -322 62 -166 0
-240 -4 -258 -13z"/>
<path d="M1780 5349 c-189 -16 -380 -72 -561 -165 -425 -218 -726 -612 -859
-1128 -46 -176 -55 -267 -54 -531 1 -260 15 -372 69 -560 56 -194 193 -465
310 -612 93 -117 875 -1007 1173 -1333 l50 -55 42 40 c82 77 511 558 871 975
228 264 366 434 419 515 145 222 245 515 281 819 19 163 7 463 -26 626 -99
501 -359 902 -755 1167 -270 181 -628 271 -960 242z m306 -260 c181 -25 377
-106 535 -220 115 -85 294 -269 369 -381 311 -465 373 -1052 166 -1568 -91
-227 -175 -350 -465 -680 -481 -546 -756 -855 -764 -859 -15 -6 -177 166 -498
530 -562 638 -642 740 -728 933 -116 256 -158 506 -140 814 15 248 60 424 161
627 214 427 610 748 994 804 86 12 281 13 370 0z"/>
<path d="M1695 4517 c-297 -99 -518 -344 -579 -639 -26 -128 -17 -254 30 -391
40 -116 97 -202 208 -312 131 -129 231 -188 391 -230 87 -22 253 -20 351 5
284 73 525 309 604 592 23 83 28 263 9 364 -13 68 -82 212 -144 299 -88 124
-222 227 -390 299 -67 29 -76 30 -240 33 -156 3 -176 1 -240 -20z m356 -257
c91 -17 189 -72 257 -144 96 -103 142 -225 142 -381 0 -191 -82 -355 -226
-450 -82 -55 -154 -76 -274 -82 -243 -12 -412 81 -520 287 -43 82 -44 88 -48
192 -5 141 11 231 59 328 60 120 169 209 300 244 63 17 233 20 310 6z"/>
<path d="M3889 5217 c-52 -35 -61 -64 -60 -191 1 -248 98 -446 218 -446 35 0
50 6 79 33 50 46 54 87 16 207 -35 107 -39 129 -51 253 -10 97 -27 127 -88
153 -46 20 -75 17 -114 -9z"/>
<path d="M4258 4550 c-39 -38 -40 -42 -36 -91 3 -28 14 -63 25 -77 49 -68 212
-106 420 -100 133 4 152 11 197 72 38 51 14 145 -45 177 -11 5 -82 14 -157 19
-75 5 -177 16 -227 25 -127 21 -132 20 -177 -25z"/>
<path d="M5183 4541 c-79 -5 -95 -9 -117 -30 -33 -31 -47 -81 -36 -122 29 -99
73 -112 370 -107 217 3 219 3 245 28 66 61 73 130 21 187 -33 36 -38 38 -118
44 -95 8 -231 8 -365 0z"/>
<path d="M5989 4541 c-82 -6 -108 -20 -135 -73 -20 -39 -17 -80 9 -119 41 -61
56 -64 312 -64 127 0 242 3 257 8 16 4 39 24 54 47 35 52 31 120 -11 174 l-27
36 -192 -2 c-105 -1 -225 -4 -267 -7z"/>
<path d="M6804 4541 c-47 -4 -89 -13 -98 -21 -59 -48 -60 -144 -3 -196 30 -28
44 -33 112 -39 42 -4 155 -6 251 -3 196 5 212 10 248 82 23 47 16 89 -24 145
l-30 41 -188 -2 c-103 0 -224 -4 -268 -7z"/>
<path d="M7578 4540 c-88 -15 -134 -111 -89 -184 25 -40 65 -63 152 -87 83
-23 155 -58 222 -107 35 -25 63 -36 97 -40 44 -4 51 -1 89 33 79 71 73 135
-19 218 -123 111 -332 188 -452 167z"/>
<path d="M8115 4026 c-65 -30 -78 -55 -87 -179 -5 -79 -17 -143 -38 -212 -47
-154 -39 -214 34 -249 61 -29 93 -22 146 32 76 76 123 225 124 392 1 84 -3
113 -18 143 -34 68 -103 100 -161 73z"/>
<path d="M7700 3359 c-25 -5 -117 -15 -204 -23 -175 -16 -193 -23 -228 -86
-28 -51 -19 -106 24 -146 31 -28 43 -31 119 -37 111 -9 288 7 369 32 71 22
124 66 135 113 10 40 -11 93 -51 128 -38 32 -73 37 -164 19z"/>
<path d="M4965 3315 c-73 -17 -110 -40 -135 -80 -32 -52 -24 -116 21 -161 40
-40 43 -40 229 -25 361 31 329 25 364 60 26 26 31 39 31 79 0 62 -38 116 -93
132 -51 14 -355 11 -417 -5z"/>
<path d="M5693 3314 c-34 -17 -73 -83 -73 -123 0 -37 30 -91 60 -106 37 -19
245 -29 405 -20 l130 7 37 38 c32 32 38 44 38 80 0 51 -22 91 -64 116 -28 17
-56 19 -266 22 -201 2 -240 0 -267 -14z"/>
<path d="M6511 3313 c-72 -36 -93 -128 -45 -199 15 -21 32 -42 38 -46 14 -10
368 -9 463 0 83 9 116 32 134 93 10 32 9 43 -10 81 -11 23 -36 53 -54 66 -32
21 -41 22 -263 22 -193 0 -234 -3 -263 -17z"/>
<path d="M4544 3051 c-91 -56 -174 -273 -174 -457 0 -91 0 -93 34 -128 29 -32
39 -36 82 -36 90 0 128 38 145 140 17 106 38 181 75 261 20 46 34 92 34 116 0
95 -113 154 -196 104z"/>
<path d="M4592 2313 c-28 -6 -71 -68 -79 -117 -7 -46 22 -93 107 -167 129
-115 268 -175 382 -167 53 4 65 9 89 36 24 26 29 42 29 81 0 71 -24 94 -157
157 -63 29 -144 77 -180 105 -84 67 -128 84 -191 72z"/>
<path d="M5395 2105 c-5 -2 -22 -6 -36 -9 -36 -8 -88 -63 -95 -101 -7 -37 13
-87 51 -128 l25 -29 253 4 c282 4 291 6 327 70 31 56 23 99 -32 155 l-42 43
-221 -1 c-121 0 -224 -2 -230 -4z"/>
<path d="M6201 2100 c-50 -6 -68 -12 -82 -31 -45 -59 -49 -142 -8 -185 35 -37
106 -46 350 -42 l221 3 34 37 c28 31 34 46 34 81 0 43 -13 70 -58 120 l-26 27
-200 -1 c-111 -1 -230 -5 -265 -9z"/>
<path d="M6944 2011 c-31 -19 -64 -74 -64 -106 0 -36 47 -97 122 -161 44 -36
103 -98 133 -138 94 -128 145 -152 222 -105 108 67 71 212 -97 381 -130 131
-240 176 -316 129z"/>
<path d="M7248 1317 c-14 -13 -46 -66 -71 -118 -26 -53 -73 -127 -107 -169
-97 -118 -108 -153 -70 -215 41 -66 106 -83 178 -46 44 23 136 116 183 186 50
74 99 201 99 257 0 92 -38 128 -133 128 -43 0 -59 -5 -79 -23z"/>
<path d="M2200 867 c-41 -14 -80 -68 -80 -109 0 -38 14 -64 58 -110 l36 -38
211 0 c256 1 288 6 332 54 27 29 33 44 33 78 0 55 -30 105 -75 124 -45 18
-461 19 -515 1z"/>
<path d="M2985 848 c-68 -81 -69 -123 -3 -194 l41 -44 242 0 c134 0 251 3 260
6 9 4 32 27 51 52 49 64 47 104 -7 166 l-41 46 -258 0 -258 0 -27 -32z"/>
<path d="M3835 870 c-71 -29 -105 -126 -66 -187 39 -63 60 -67 324 -71 l239
-4 30 29 c16 15 39 45 50 66 24 48 14 85 -39 139 l-37 38 -241 -1 c-132 0
-249 -4 -260 -9z"/>
<path d="M4644 866 c-47 -21 -74 -61 -74 -113 0 -54 21 -93 64 -119 28 -17 53
-19 251 -19 246 1 289 8 329 56 32 38 34 87 4 140 -36 65 -56 69 -315 69 -168
-1 -236 -4 -259 -14z"/>
<path d="M5465 871 c-84 -36 -105 -161 -36 -223 38 -34 116 -42 353 -36 139 3
179 7 205 21 42 22 63 64 63 122 0 38 -6 52 -34 83 l-34 37 -249 2 c-136 1
-257 -2 -268 -6z"/>
<path d="M6274 871 c-11 -5 -33 -23 -47 -41 -50 -58 -31 -162 36 -197 26 -14
66 -18 205 -21 232 -6 314 2 352 35 59 49 59 142 -1 199 l-30 29 -247 2 c-136
1 -256 -2 -268 -6z"/>
</g>
</svg>
